<?xml version="1.0" encoding="utf-8" standalone="no"?>
<!DOCTYPE svg PUBLIC "-//W3C//DTD SVG 1.1//EN"
  "http://www.w3.org/Graphics/SVG/1.1/DTD/svg11.dtd">
<svg xmlns:xlink="http://www.w3.org/1999/xlink" width="242.146875pt" height="185.496295pt" viewBox="0 0 242.146875 185.496295" xmlns="http://www.w3.org/2000/svg" version="1.1">
 <metadata>
  <rdf:RDF xmlns:dc="http://purl.org/dc/elements/1.1/" xmlns:cc="http://creativecommons.org/ns#" xmlns:rdf="http://www.w3.org/1999/02/22-rdf-syntax-ns#">
   <cc:Work>
    <dc:type rdf:resource="http://purl.org/dc/dcmitype/StillImage"/>
    <dc:date>2023-07-20T21:30:42.327224</dc:date>
    <dc:format>image/svg+xml</dc:format>
    <dc:creator>
     <cc:Agent>
      <dc:title>Matplotlib v3.5.1, https://matplotlib.org/</dc:title>
     </cc:Agent>
    </dc:creator>
   </cc:Work>
  </rdf:RDF>
 </metadata>
 <defs>
  <style type="text/css">*{stroke-linejoin: round; stroke-linecap: butt}</style>
 </defs>
 <g id="figure_1">
  <g id="patch_1">
   <path d="M 0 185.496295 
L 242.146875 185.496295 
L 242.146875 -0 
L 0 -0 
z
" style="fill: #ffffff"/>
  </g>
  <g id="axes_1">
   <g id="patch_2">
    <path d="M 30.103125 147.940045 
L 225.403125 147.940045 
L 225.403125 9.340045 
L 30.103125 9.340045 
z
" style="fill: #ffffff"/>
   </g>
   <g id="matplotlib.axis_1">
    <g id="xtick_1">
     <g id="line2d_1">
      <path d="M 67.584943 147.940045 
L 67.584943 9.340045 
" clip-path="url(#p4031b2bf98)" style="fill: none; stroke: #b0b0b0; stroke-width: 0.8; stroke-linecap: square"/>
     </g>
     <g id="line2d_2">
      <defs>
       <path id="m43a32cb526" d="M 0 0 
L 0 3.5 
" style="stroke: #000000; stroke-width: 0.8"/>
      </defs>
      <g>
       <use xlink:href="#m43a32cb526" x="67.584943" y="147.940045" style="stroke: #000000; stroke-width: 0.8"/>
      </g>
     </g>
     <g id="text_1">
      <!-- 20 -->
      <g transform="translate(61.222443 162.538483)scale(0.1 -0.1)">
       <defs>
        <path id="DejaVuSans-32" d="M 1228 531 
L 3431 531 
L 3431 0 
L 469 0 
L 469 531 
Q 828 903 1448 1529 
Q 2069 2156 2228 2338 
Q 2531 2678 2651 2914 
Q 2772 3150 2772 3378 
Q 2772 3750 2511 3984 
Q 2250 4219 1831 4219 
Q 1534 4219 1204 4116 
Q 875 4013 500 3803 
L 500 4441 
Q 881 4594 1212 4672 
Q 1544 4750 1819 4750 
Q 2544 4750 2975 4387 
Q 3406 4025 3406 3419 
Q 3406 3131 3298 2873 
Q 3191 2616 2906 2266 
Q 2828 2175 2409 1742 
Q 1991 1309 1228 531 
z
" transform="scale(0.015625)"/>
        <path id="DejaVuSans-30" d="M 2034 4250 
Q 1547 4250 1301 3770 
Q 1056 3291 1056 2328 
Q 1056 1369 1301 889 
Q 1547 409 2034 409 
Q 2525 409 2770 889 
Q 3016 1369 3016 2328 
Q 3016 3291 2770 3770 
Q 2525 4250 2034 4250 
z
M 2034 4750 
Q 2819 4750 3233 4129 
Q 3647 3509 3647 2328 
Q 3647 1150 3233 529 
Q 2819 -91 2034 -91 
Q 1250 -91 836 529 
Q 422 1150 422 2328 
Q 422 3509 836 4129 
Q 1250 4750 2034 4750 
z
" transform="scale(0.015625)"/>
       </defs>
       <use xlink:href="#DejaVuSans-32"/>
       <use xlink:href="#DejaVuSans-30" x="63.623047"/>
      </g>
     </g>
    </g>
    <g id="xtick_2">
     <g id="line2d_3">
      <path d="M 107.039489 147.940045 
L 107.039489 9.340045 
" clip-path="url(#p4031b2bf98)" style="fill: none; stroke: #b0b0b0; stroke-width: 0.8; stroke-linecap: square"/>
     </g>
     <g id="line2d_4">
      <g>
       <use xlink:href="#m43a32cb526" x="107.039489" y="147.940045" style="stroke: #000000; stroke-width: 0.8"/>
      </g>
     </g>
     <g id="text_2">
      <!-- 40 -->
      <g transform="translate(100.676989 162.538483)scale(0.1 -0.1)">
       <defs>
        <path id="DejaVuSans-34" d="M 2419 4116 
L 825 1625 
L 2419 1625 
L 2419 4116 
z
M 2253 4666 
L 3047 4666 
L 3047 1625 
L 3713 1625 
L 3713 1100 
L 3047 1100 
L 3047 0 
L 2419 0 
L 2419 1100 
L 313 1100 
L 313 1709 
L 2253 4666 
z
" transform="scale(0.015625)"/>
       </defs>
       <use xlink:href="#DejaVuSans-34"/>
       <use xlink:href="#DejaVuSans-30" x="63.623047"/>
      </g>
     </g>
    </g>
    <g id="xtick_3">
     <g id="line2d_5">
      <path d="M 146.494034 147.940045 
L 146.494034 9.340045 
" clip-path="url(#p4031b2bf98)" style="fill: none; stroke: #b0b0b0; stroke-width: 0.8; stroke-linecap: square"/>
     </g>
     <g id="line2d_6">
      <g>
       <use xlink:href="#m43a32cb526" x="146.494034" y="147.940045" style="stroke: #000000; stroke-width: 0.8"/>
      </g>
     </g>
     <g id="text_3">
      <!-- 60 -->
      <g transform="translate(140.131534 162.538483)scale(0.1 -0.1)">
       <defs>
        <path id="DejaVuSans-36" d="M 2113 2584 
Q 1688 2584 1439 2293 
Q 1191 2003 1191 1497 
Q 1191 994 1439 701 
Q 1688 409 2113 409 
Q 2538 409 2786 701 
Q 3034 994 3034 1497 
Q 3034 2003 2786 2293 
Q 2538 2584 2113 2584 
z
M 3366 4563 
L 3366 3988 
Q 3128 4100 2886 4159 
Q 2644 4219 2406 4219 
Q 1781 4219 1451 3797 
Q 1122 3375 1075 2522 
Q 1259 2794 1537 2939 
Q 1816 3084 2150 3084 
Q 2853 3084 3261 2657 
Q 3669 2231 3669 1497 
Q 3669 778 3244 343 
Q 2819 -91 2113 -91 
Q 1303 -91 875 529 
Q 447 1150 447 2328 
Q 447 3434 972 4092 
Q 1497 4750 2381 4750 
Q 2619 4750 2861 4703 
Q 3103 4656 3366 4563 
z
" transform="scale(0.015625)"/>
       </defs>
       <use xlink:href="#DejaVuSans-36"/>
       <use xlink:href="#DejaVuSans-30" x="63.623047"/>
      </g>
     </g>
    </g>
    <g id="xtick_4">
     <g id="line2d_7">
      <path d="M 185.94858 147.940045 
L 185.94858 9.340045 
" clip-path="url(#p4031b2bf98)" style="fill: none; stroke: #b0b0b0; stroke-width: 0.8; stroke-linecap: square"/>
     </g>
     <g id="line2d_8">
      <g>
       <use xlink:href="#m43a32cb526" x="185.94858" y="147.940045" style="stroke: #000000; stroke-width: 0.8"/>
      </g>
     </g>
     <g id="text_4">
      <!-- 80 -->
      <g transform="translate(179.58608 162.538483)scale(0.1 -0.1)">
       <defs>
        <path id="DejaVuSans-38" d="M 2034 2216 
Q 1584 2216 1326 1975 
Q 1069 1734 1069 1313 
Q 1069 891 1326 650 
Q 1584 409 2034 409 
Q 2484 409 2743 651 
Q 3003 894 3003 1313 
Q 3003 1734 2745 1975 
Q 2488 2216 2034 2216 
z
M 1403 2484 
Q 997 2584 770 2862 
Q 544 3141 544 3541 
Q 544 4100 942 4425 
Q 1341 4750 2034 4750 
Q 2731 4750 3128 4425 
Q 3525 4100 3525 3541 
Q 3525 3141 3298 2862 
Q 3072 2584 2669 2484 
Q 3125 2378 3379 2068 
Q 3634 1759 3634 1313 
Q 3634 634 3220 271 
Q 2806 -91 2034 -91 
Q 1263 -91 848 271 
Q 434 634 434 1313 
Q 434 1759 690 2068 
Q 947 2378 1403 2484 
z
M 1172 3481 
Q 1172 3119 1398 2916 
Q 1625 2713 2034 2713 
Q 2441 2713 2670 2916 
Q 2900 3119 2900 3481 
Q 2900 3844 2670 4047 
Q 2441 4250 2034 4250 
Q 1625 4250 1398 4047 
Q 1172 3844 1172 3481 
z
" transform="scale(0.015625)"/>
       </defs>
       <use xlink:href="#DejaVuSans-38"/>
       <use xlink:href="#DejaVuSans-30" x="63.623047"/>
      </g>
     </g>
    </g>
    <g id="xtick_5">
     <g id="line2d_9">
      <path d="M 225.403125 147.940045 
L 225.403125 9.340045 
" clip-path="url(#p4031b2bf98)" style="fill: none; stroke: #b0b0b0; stroke-width: 0.8; stroke-linecap: square"/>
     </g>
     <g id="line2d_10">
      <g>
       <use xlink:href="#m43a32cb526" x="225.403125" y="147.940045" style="stroke: #000000; stroke-width: 0.8"/>
      </g>
     </g>
     <g id="text_5">
      <!-- 100 -->
      <g transform="translate(215.859375 162.538483)scale(0.1 -0.1)">
       <defs>
        <path id="DejaVuSans-31" d="M 794 531 
L 1825 531 
L 1825 4091 
L 703 3866 
L 703 4441 
L 1819 4666 
L 2450 4666 
L 2450 531 
L 3481 531 
L 3481 0 
L 794 0 
L 794 531 
z
" transform="scale(0.015625)"/>
       </defs>
       <use xlink:href="#DejaVuSans-31"/>
       <use xlink:href="#DejaVuSans-30" x="63.623047"/>
       <use xlink:href="#DejaVuSans-30" x="127.246094"/>
      </g>
     </g>
    </g>
    <g id="text_6">
     <!-- epoch -->
     <g transform="translate(112.525 176.216608)scale(0.1 -0.1)">
      <defs>
       <path id="DejaVuSans-65" d="M 3597 1894 
L 3597 1613 
L 953 1613 
Q 991 1019 1311 708 
Q 1631 397 2203 397 
Q 2534 397 2845 478 
Q 3156 559 3463 722 
L 3463 178 
Q 3153 47 2828 -22 
Q 2503 -91 2169 -91 
Q 1331 -91 842 396 
Q 353 884 353 1716 
Q 353 2575 817 3079 
Q 1281 3584 2069 3584 
Q 2775 3584 3186 3129 
Q 3597 2675 3597 1894 
z
M 3022 2063 
Q 3016 2534 2758 2815 
Q 2500 3097 2075 3097 
Q 1594 3097 1305 2825 
Q 1016 2553 972 2059 
L 3022 2063 
z
" transform="scale(0.015625)"/>
       <path id="DejaVuSans-70" d="M 1159 525 
L 1159 -1331 
L 581 -1331 
L 581 3500 
L 1159 3500 
L 1159 2969 
Q 1341 3281 1617 3432 
Q 1894 3584 2278 3584 
Q 2916 3584 3314 3078 
Q 3713 2572 3713 1747 
Q 3713 922 3314 415 
Q 2916 -91 2278 -91 
Q 1894 -91 1617 61 
Q 1341 213 1159 525 
z
M 3116 1747 
Q 3116 2381 2855 2742 
Q 2594 3103 2138 3103 
Q 1681 3103 1420 2742 
Q 1159 2381 1159 1747 
Q 1159 1113 1420 752 
Q 1681 391 2138 391 
Q 2594 391 2855 752 
Q 3116 1113 3116 1747 
z
" transform="scale(0.015625)"/>
       <path id="DejaVuSans-6f" d="M 1959 3097 
Q 1497 3097 1228 2736 
Q 959 2375 959 1747 
Q 959 1119 1226 758 
Q 1494 397 1959 397 
Q 2419 397 2687 759 
Q 2956 1122 2956 1747 
Q 2956 2369 2687 2733 
Q 2419 3097 1959 3097 
z
M 1959 3584 
Q 2709 3584 3137 3096 
Q 3566 2609 3566 1747 
Q 3566 888 3137 398 
Q 2709 -91 1959 -91 
Q 1206 -91 779 398 
Q 353 888 353 1747 
Q 353 2609 779 3096 
Q 1206 3584 1959 3584 
z
" transform="scale(0.015625)"/>
       <path id="DejaVuSans-63" d="M 3122 3366 
L 3122 2828 
Q 2878 2963 2633 3030 
Q 2388 3097 2138 3097 
Q 1578 3097 1268 2742 
Q 959 2388 959 1747 
Q 959 1106 1268 751 
Q 1578 397 2138 397 
Q 2388 397 2633 464 
Q 2878 531 3122 666 
L 3122 134 
Q 2881 22 2623 -34 
Q 2366 -91 2075 -91 
Q 1284 -91 818 406 
Q 353 903 353 1747 
Q 353 2603 823 3093 
Q 1294 3584 2113 3584 
Q 2378 3584 2631 3529 
Q 2884 3475 3122 3366 
z
" transform="scale(0.015625)"/>
       <path id="DejaVuSans-68" d="M 3513 2113 
L 3513 0 
L 2938 0 
L 2938 2094 
Q 2938 2591 2744 2837 
Q 2550 3084 2163 3084 
Q 1697 3084 1428 2787 
Q 1159 2491 1159 1978 
L 1159 0 
L 581 0 
L 581 4863 
L 1159 4863 
L 1159 2956 
Q 1366 3272 1645 3428 
Q 1925 3584 2291 3584 
Q 2894 3584 3203 3211 
Q 3513 2838 3513 2113 
z
" transform="scale(0.015625)"/>
      </defs>
      <use xlink:href="#DejaVuSans-65"/>
      <use xlink:href="#DejaVuSans-70" x="61.523438"/>
      <use xlink:href="#DejaVuSans-6f" x="125"/>
      <use xlink:href="#DejaVuSans-63" x="186.181641"/>
      <use xlink:href="#DejaVuSans-68" x="241.162109"/>
     </g>
    </g>
   </g>
   <g id="matplotlib.axis_2">
    <g id="ytick_1">
     <g id="line2d_11">
      <path d="M 30.103125 141.918573 
L 225.403125 141.918573 
" clip-path="url(#p4031b2bf98)" style="fill: none; stroke: #b0b0b0; stroke-width: 0.8; stroke-linecap: square"/>
     </g>
     <g id="line2d_12">
      <defs>
       <path id="m947e85c580" d="M 0 0 
L -3.5 0 
" style="stroke: #000000; stroke-width: 0.8"/>
      </defs>
      <g>
       <use xlink:href="#m947e85c580" x="30.103125" y="141.918573" style="stroke: #000000; stroke-width: 0.8"/>
      </g>
     </g>
     <g id="text_7">
      <!-- 0.0 -->
      <g transform="translate(7.2 145.717792)scale(0.1 -0.1)">
       <defs>
        <path id="DejaVuSans-2e" d="M 684 794 
L 1344 794 
L 1344 0 
L 684 0 
L 684 794 
z
" transform="scale(0.015625)"/>
       </defs>
       <use xlink:href="#DejaVuSans-30"/>
       <use xlink:href="#DejaVuSans-2e" x="63.623047"/>
       <use xlink:href="#DejaVuSans-30" x="95.410156"/>
      </g>
     </g>
    </g>
    <g id="ytick_2">
     <g id="line2d_13">
      <path d="M 30.103125 109.188734 
L 225.403125 109.188734 
" clip-path="url(#p4031b2bf98)" style="fill: none; stroke: #b0b0b0; stroke-width: 0.8; stroke-linecap: square"/>
     </g>
     <g id="line2d_14">
      <g>
       <use xlink:href="#m947e85c580" x="30.103125" y="109.188734" style="stroke: #000000; stroke-width: 0.8"/>
      </g>
     </g>
     <g id="text_8">
      <!-- 0.5 -->
      <g transform="translate(7.2 112.987953)scale(0.1 -0.1)">
       <defs>
        <path id="DejaVuSans-35" d="M 691 4666 
L 3169 4666 
L 3169 4134 
L 1269 4134 
L 1269 2991 
Q 1406 3038 1543 3061 
Q 1681 3084 1819 3084 
Q 2600 3084 3056 2656 
Q 3513 2228 3513 1497 
Q 3513 744 3044 326 
Q 2575 -91 1722 -91 
Q 1428 -91 1123 -41 
Q 819 9 494 109 
L 494 744 
Q 775 591 1075 516 
Q 1375 441 1709 441 
Q 2250 441 2565 725 
Q 2881 1009 2881 1497 
Q 2881 1984 2565 2268 
Q 2250 2553 1709 2553 
Q 1456 2553 1204 2497 
Q 953 2441 691 2322 
L 691 4666 
z
" transform="scale(0.015625)"/>
       </defs>
       <use xlink:href="#DejaVuSans-30"/>
       <use xlink:href="#DejaVuSans-2e" x="63.623047"/>
       <use xlink:href="#DejaVuSans-35" x="95.410156"/>
      </g>
     </g>
    </g>
    <g id="ytick_3">
     <g id="line2d_15">
      <path d="M 30.103125 76.458896 
L 225.403125 76.458896 
" clip-path="url(#p4031b2bf98)" style="fill: none; stroke: #b0b0b0; stroke-width: 0.8; stroke-linecap: square"/>
     </g>
     <g id="line2d_16">
      <g>
       <use xlink:href="#m947e85c580" x="30.103125" y="76.458896" style="stroke: #000000; stroke-width: 0.8"/>
      </g>
     </g>
     <g id="text_9">
      <!-- 1.0 -->
      <g transform="translate(7.2 80.258115)scale(0.1 -0.1)">
       <use xlink:href="#DejaVuSans-31"/>
       <use xlink:href="#DejaVuSans-2e" x="63.623047"/>
       <use xlink:href="#DejaVuSans-30" x="95.410156"/>
      </g>
     </g>
    </g>
    <g id="ytick_4">
     <g id="line2d_17">
      <path d="M 30.103125 43.729057 
L 225.403125 43.729057 
" clip-path="url(#p4031b2bf98)" style="fill: none; stroke: #b0b0b0; stroke-width: 0.8; stroke-linecap: square"/>
     </g>
     <g id="line2d_18">
      <g>
       <use xlink:href="#m947e85c580" x="30.103125" y="43.729057" style="stroke: #000000; stroke-width: 0.8"/>
      </g>
     </g>
     <g id="text_10">
      <!-- 1.5 -->
      <g transform="translate(7.2 47.528276)scale(0.1 -0.1)">
       <use xlink:href="#DejaVuSans-31"/>
       <use xlink:href="#DejaVuSans-2e" x="63.623047"/>
       <use xlink:href="#DejaVuSans-35" x="95.410156"/>
      </g>
     </g>
    </g>
    <g id="ytick_5">
     <g id="line2d_19">
      <path d="M 30.103125 10.999219 
L 225.403125 10.999219 
" clip-path="url(#p4031b2bf98)" style="fill: none; stroke: #b0b0b0; stroke-width: 0.8; stroke-linecap: square"/>
     </g>
     <g id="line2d_20">
      <g>
       <use xlink:href="#m947e85c580" x="30.103125" y="10.999219" style="stroke: #000000; stroke-width: 0.8"/>
      </g>
     </g>
     <g id="text_11">
      <!-- 2.0 -->
      <g transform="translate(7.2 14.798437)scale(0.1 -0.1)">
       <use xlink:href="#DejaVuSans-32"/>
       <use xlink:href="#DejaVuSans-2e" x="63.623047"/>
       <use xlink:href="#DejaVuSans-30" x="95.410156"/>
      </g>
     </g>
    </g>
   </g>
   <g id="line2d_21">
    <path d="M 28.523819 15.640045 
L 28.917241 27.360159 
L 29.704083 40.620227 
L 30.103125 44.976086 
L 30.496546 69.547402 
L 31.283389 74.914734 
L 32.075852 78.750717 
L 32.469274 92.241918 
L 32.862695 91.780425 
L 33.256116 92.540999 
L 33.649538 92.664711 
L 34.042959 93.231043 
L 34.04858 93.218394 
L 34.442001 101.768336 
L 34.835422 101.008928 
L 35.228844 100.917816 
L 35.622265 101.365223 
L 36.021307 101.450365 
L 36.414728 105.996942 
L 36.80815 106.616846 
L 37.201571 106.429518 
L 37.994034 107.147997 
L 38.387455 111.619479 
L 39.174298 110.550724 
L 39.56772 111.009594 
L 39.966761 110.978769 
L 40.360183 114.933128 
L 40.753604 114.257243 
L 41.147026 113.846452 
L 41.939489 113.844414 
L 42.33291 116.374489 
L 42.726331 116.826847 
L 43.119753 115.970333 
L 43.513174 115.985449 
L 43.912216 116.129432 
L 44.305637 120.236003 
L 45.485901 119.398544 
L 45.884943 119.467418 
L 46.278365 122.132262 
L 47.065207 121.910319 
L 47.458629 121.653641 
L 47.85767 121.614673 
L 48.251092 123.02437 
L 48.644513 122.995496 
L 49.037935 122.801393 
L 49.431356 122.787338 
L 49.830398 122.593862 
L 50.223819 124.896601 
L 51.404083 123.750811 
L 51.803125 123.948881 
L 52.196546 126.271804 
L 52.589968 126.620721 
L 52.983389 126.439749 
L 53.376811 126.4997 
L 53.775852 126.376378 
L 54.169274 128.180776 
L 54.956116 127.464897 
L 55.74858 127.443752 
L 56.142001 130.014993 
L 56.535422 129.836779 
L 56.928844 129.518612 
L 57.322265 128.942858 
L 57.721307 128.666774 
L 58.114728 129.666752 
L 58.50815 129.466063 
L 59.294992 129.429833 
L 59.694034 129.293241 
L 60.087455 130.444779 
L 60.480877 130.570995 
L 60.874298 130.851057 
L 61.26772 130.855291 
L 61.666761 130.7252 
L 62.060183 131.988226 
L 62.453604 132.29789 
L 63.240447 131.729869 
L 63.639489 131.546106 
L 64.03291 132.59279 
L 64.819753 132.141826 
L 65.612216 132.070443 
L 66.005637 132.745331 
L 66.399059 132.867599 
L 66.79248 132.769344 
L 67.185901 132.290901 
L 67.584943 132.317238 
L 67.978365 134.4398 
L 68.371786 134.206724 
L 69.158629 134.139931 
L 69.55767 134.077156 
L 69.951092 134.682142 
L 70.344513 134.572514 
L 70.737935 134.59929 
L 71.131356 134.767062 
L 71.923819 134.474096 
L 72.317241 134.736784 
L 72.710662 134.80149 
L 73.503125 134.640663 
L 73.896546 135.974989 
L 74.683389 135.289729 
L 75.475852 135.236944 
L 75.869274 136.2054 
L 76.262695 135.857527 
L 77.049538 136.033018 
L 77.44858 136.058593 
L 77.842001 136.793685 
L 79.421307 136.509065 
L 79.814728 137.12066 
L 81.787455 136.979712 
L 82.180877 137.063531 
L 83.366761 136.871425 
L 83.760183 137.500564 
L 85.339489 137.339325 
L 85.73291 137.800894 
L 86.519753 137.904916 
L 87.312216 137.720725 
L 87.705637 138.487722 
L 88.099059 138.004466 
L 88.885901 137.817506 
L 89.678365 137.896944 
L 91.25767 138.016957 
L 92.044513 138.519058 
L 93.230398 138.523649 
L 93.623819 139.136271 
L 95.203125 138.885424 
L 95.596546 138.577559 
L 95.989968 138.728357 
L 96.776811 138.664587 
L 97.175852 138.692432 
L 97.569274 139.176096 
L 98.356116 139.031263 
L 99.14858 138.925684 
L 99.542001 139.295091 
L 101.121307 139.138799 
L 101.514728 139.791616 
L 101.90815 139.453027 
L 102.694992 139.436798 
L 103.094034 139.326942 
L 103.487455 139.722591 
L 104.274298 139.528186 
L 105.066761 139.453556 
L 105.460183 139.674365 
L 106.247026 139.791786 
L 107.039489 139.69612 
L 107.43291 140.176922 
L 109.405637 139.818328 
L 110.585901 139.86167 
L 110.984943 139.808905 
L 111.378365 140.071547 
L 113.351092 140.064217 
L 113.744513 140.173269 
L 116.903125 139.943706 
L 117.296546 140.434722 
L 117.689968 140.248676 
L 120.84858 140.42992 
L 121.242001 140.296801 
L 122.821307 140.315436 
L 123.214728 140.553082 
L 124.001571 140.575517 
L 124.794034 140.545409 
L 125.187455 140.723204 
L 125.580877 140.554374 
L 127.553604 140.490634 
L 128.340447 140.661053 
L 129.13291 140.590042 
L 130.712216 140.55058 
L 131.499059 140.694211 
L 137.417241 140.625467 
L 137.810662 140.57009 
L 138.603125 140.636279 
L 138.996546 140.907255 
L 142.54858 140.936314 
L 142.942001 141.081287 
L 143.728844 140.962023 
L 144.521307 140.987418 
L 145.30815 140.884083 
L 146.494034 140.926342 
L 147.280877 141.118001 
L 158.330398 141.035048 
L 158.723819 141.261417 
L 159.510662 141.221828 
L 161.089968 141.213281 
L 162.669274 141.34256 
L 163.456116 141.275505 
L 164.24858 141.296076 
L 164.642001 141.158411 
L 165.428844 141.258553 
L 166.614728 141.342012 
L 168.980877 141.282888 
L 170.166761 141.330763 
L 170.560183 141.211295 
L 171.347026 141.337671 
L 172.139489 141.284565 
L 172.926331 141.410276 
L 176.084943 141.34475 
L 176.478365 141.555851 
L 177.265207 141.40561 
L 178.05767 141.429892 
L 178.844513 141.324043 
L 179.631356 141.32186 
L 182.003125 141.322033 
L 182.396546 141.452973 
L 183.576811 141.407253 
L 192.260183 141.400197 
L 193.440447 141.4621 
L 197.784943 141.499205 
L 198.965207 141.380296 
L 200.544513 141.366221 
L 202.910662 141.505426 
L 206.462695 141.532173 
L 208.042001 141.521675 
L 209.222265 141.522809 
L 211.594034 141.504199 
L 211.987455 141.40634 
L 212.774298 141.551955 
L 213.566761 141.534229 
L 213.960183 141.640045 
L 215.539489 141.584132 
L 216.326331 141.623782 
L 217.905637 141.55192 
L 225.403125 141.617375 
L 225.403125 141.617375 
" clip-path="url(#p4031b2bf98)" style="fill: none; stroke: #1f77b4; stroke-width: 1.5; stroke-linecap: square"/>
   </g>
   <g id="line2d_22">
    <path d="M 28.523819 123.025858 
L 28.917241 118.664315 
L 29.704083 113.513749 
L 30.103125 111.866683 
L 30.496546 102.511263 
L 31.283389 100.270828 
L 32.075852 98.782907 
L 32.469274 93.780871 
L 32.862695 93.952556 
L 33.256116 93.734601 
L 33.649538 93.72973 
L 34.04858 93.553767 
L 34.442001 90.515193 
L 35.228844 90.707578 
L 35.622265 90.559027 
L 36.021307 90.558195 
L 36.414728 89.054039 
L 36.80815 88.754503 
L 37.201571 88.825125 
L 37.994034 88.532978 
L 38.387455 87.088788 
L 39.174298 87.458947 
L 39.56772 87.242209 
L 39.966761 87.263939 
L 40.360183 85.854113 
L 40.753604 86.139038 
L 41.147026 86.241319 
L 41.939489 86.230932 
L 42.33291 85.364626 
L 42.726331 85.291569 
L 43.119753 85.564317 
L 43.513174 85.549097 
L 43.912216 85.415018 
L 44.305637 84.181092 
L 44.699059 84.170133 
L 45.09248 84.288243 
L 45.884943 84.261081 
L 46.278365 83.194814 
L 47.85767 83.545699 
L 48.251092 83.077921 
L 49.431356 83.156458 
L 49.830398 83.213505 
L 50.223819 82.478848 
L 50.617241 82.51903 
L 51.010662 82.754032 
L 51.404083 82.811261 
L 51.803125 82.750182 
L 52.196546 82.018585 
L 52.589968 81.781148 
L 53.376811 81.839594 
L 53.775852 81.865788 
L 54.169274 81.35376 
L 54.562695 81.642338 
L 55.74858 81.612272 
L 56.142001 80.513597 
L 57.721307 81.049873 
L 58.114728 80.835051 
L 58.50815 80.962902 
L 59.294992 80.924546 
L 59.694034 80.971196 
L 60.087455 80.396705 
L 61.666761 80.283496 
L 62.060183 79.863384 
L 62.453604 79.804937 
L 63.240447 80.062466 
L 63.639489 80.124684 
L 64.03291 79.761103 
L 65.612216 79.842028 
L 66.005637 79.498095 
L 67.185901 79.846946 
L 67.584943 79.853684 
L 67.978365 79.220476 
L 68.765207 79.142548 
L 69.55767 79.231549 
L 69.951092 78.701766 
L 70.344513 78.85884 
L 71.530398 78.868758 
L 71.923819 78.993997 
L 73.503125 79.005716 
L 73.896546 78.526428 
L 74.683389 78.728554 
L 75.475852 78.774054 
L 75.869274 78.416842 
L 76.262695 78.56661 
L 77.44858 78.50014 
L 77.842001 78.234197 
L 79.421307 78.35007 
L 79.814728 78.036942 
L 81.394034 78.198543 
L 81.787455 78.095388 
L 83.366761 78.175231 
L 83.760183 77.854297 
L 87.312216 77.940655 
L 87.705637 77.649736 
L 88.099059 77.836033 
L 90.465207 77.864038 
L 91.25767 77.81244 
L 91.651092 77.613207 
L 92.437935 77.625383 
L 93.230398 77.620117 
L 93.623819 77.372117 
L 95.203125 77.48316 
L 95.596546 77.540149 
L 95.989968 77.445174 
L 97.175852 77.518128 
L 97.962695 77.390381 
L 99.542001 77.445174 
L 100.722265 77.412299 
L 101.121307 77.410311 
L 101.514728 77.196778 
L 102.301571 77.289318 
L 103.094034 77.314149 
L 103.487455 77.123721 
L 104.66772 77.273489 
L 105.066761 77.279182 
L 105.460183 77.138332 
L 107.039489 77.15388 
L 107.43291 76.948382 
L 110.19248 77.189473 
L 112.558629 77.090845 
L 116.903125 77.088316 
L 117.296546 76.897242 
L 118.083389 76.997087 
L 120.84858 76.932418 
L 121.635422 76.977605 
L 124.794034 76.916391 
L 125.187455 76.846102 
L 126.36772 76.906374 
L 130.712216 76.920762 
L 131.105637 76.802267 
L 138.603125 76.894536 
L 138.996546 76.751127 
L 141.362695 76.754779 
L 142.942001 76.721903 
L 143.728844 76.775479 
L 157.144513 76.740168 
L 158.330398 76.754665 
L 159.117241 76.630581 
L 161.089968 76.689028 
L 163.062695 76.648846 
L 213.566761 76.590025 
L 214.353604 76.528301 
L 218.69248 76.570918 
L 225.403125 76.546315 
L 225.403125 76.546315 
" clip-path="url(#p4031b2bf98)" style="fill: none; stroke-dasharray: 5.55,2.4; stroke-dashoffset: 0; stroke: #bf00bf; stroke-width: 1.5"/>
   </g>
   <g id="line2d_23">
    <path d="M 30.103125 111.024543 
L 32.075852 97.29532 
L 34.04858 97.505126 
L 36.021307 95.000559 
L 37.994034 91.250265 
L 39.966761 90.515942 
L 41.939489 90.14878 
L 43.912216 92.614008 
L 45.884943 89.899635 
L 47.85767 87.460632 
L 49.830398 88.063827 
L 51.803125 87.827794 
L 53.775852 88.588343 
L 55.74858 89.257102 
L 57.721307 88.968618 
L 59.694034 87.867133 
L 61.666761 87.054132 
L 63.639489 87.408181 
L 65.612216 85.952647 
L 67.584943 87.13281 
L 69.55767 86.437825 
L 71.530398 87.670439 
L 73.503125 86.005099 
L 75.475852 86.123115 
L 77.44858 86.37226 
L 79.421307 86.201793 
L 81.394034 85.926421 
L 83.366761 85.677276 
L 85.339489 86.437825 
L 87.312216 86.005099 
L 89.284943 86.005099 
L 91.25767 85.821518 
L 93.230398 86.110002 
L 95.203125 86.8181 
L 97.175852 85.664163 
L 99.14858 86.713196 
L 101.121307 85.755953 
L 103.094034 85.939534 
L 105.066761 85.441243 
L 107.039489 85.716615 
L 109.012216 85.860857 
L 110.984943 85.677276 
L 112.95767 85.349453 
L 114.930398 85.126533 
L 116.903125 85.375679 
L 118.875852 86.096889 
L 120.84858 85.42813 
L 122.821307 84.982291 
L 124.794034 85.11342 
L 126.766761 85.454356 
L 128.739489 85.375679 
L 130.712216 85.795292 
L 132.684943 84.79871 
L 134.65767 84.982291 
L 136.630398 85.401905 
L 138.603125 84.759372 
L 140.575852 84.693807 
L 142.54858 85.11342 
L 144.521307 84.785598 
L 146.494034 84.70692 
L 148.466761 84.746259 
L 150.439489 85.323227 
L 152.412216 85.074082 
L 154.384943 84.70692 
L 156.35767 85.205211 
L 158.330398 84.903614 
L 160.303125 84.982291 
L 162.275852 85.11342 
L 164.24858 84.588904 
L 166.221307 84.890501 
L 168.194034 85.087195 
L 170.166761 84.772485 
L 172.139489 84.70692 
L 174.112216 84.956065 
L 176.084943 84.549565 
L 178.05767 85.178985 
L 180.030398 84.562678 
L 182.003125 84.942953 
L 183.975852 84.811823 
L 185.94858 84.444662 
L 187.921307 84.484001 
L 189.894034 84.549565 
L 191.866761 84.497113 
L 193.839489 84.759372 
L 195.812216 85.02163 
L 197.784943 84.995404 
L 199.75767 84.92984 
L 201.730398 84.693807 
L 203.703125 84.470888 
L 205.675852 84.641355 
L 207.64858 84.641355 
L 209.621307 84.61513 
L 211.594034 85.165872 
L 213.566761 84.562678 
L 215.539489 84.536452 
L 217.512216 84.510226 
L 219.484943 84.497113 
L 221.45767 84.497113 
L 223.430398 84.654468 
L 225.403125 84.746259 
" clip-path="url(#p4031b2bf98)" style="fill: none; stroke-dasharray: 9.6,2.4,1.5,2.4; stroke-dashoffset: 0; stroke: #008000; stroke-width: 1.5"/>
   </g>
   <g id="patch_3">
    <path d="M 30.103125 147.940045 
L 30.103125 9.340045 
" style="fill: none; stroke: #000000; stroke-width: 0.8; stroke-linejoin: miter; stroke-linecap: square"/>
   </g>
   <g id="patch_4">
    <path d="M 225.403125 147.940045 
L 225.403125 9.340045 
" style="fill: none; stroke: #000000; stroke-width: 0.8; stroke-linejoin: miter; stroke-linecap: square"/>
   </g>
   <g id="patch_5">
    <path d="M 30.103125 147.940045 
L 225.403125 147.940045 
" style="fill: none; stroke: #000000; stroke-width: 0.8; stroke-linejoin: miter; stroke-linecap: square"/>
   </g>
   <g id="patch_6">
    <path d="M 30.103125 9.340045 
L 225.403125 9.340045 
" style="fill: none; stroke: #000000; stroke-width: 0.8; stroke-linejoin: miter; stroke-linecap: square"/>
   </g>
   <g id="legend_1">
    <g id="patch_7">
     <path d="M 140.634375 61.37442 
L 218.403125 61.37442 
Q 220.403125 61.37442 220.403125 59.37442 
L 220.403125 16.340045 
Q 220.403125 14.340045 218.403125 14.340045 
L 140.634375 14.340045 
Q 138.634375 14.340045 138.634375 16.340045 
L 138.634375 59.37442 
Q 138.634375 61.37442 140.634375 61.37442 
z
" style="fill: #ffffff; opacity: 0.8; stroke: #cccccc; stroke-linejoin: miter"/>
    </g>
    <g id="line2d_24">
     <path d="M 142.634375 22.438483 
L 152.634375 22.438483 
L 162.634375 22.438483 
" style="fill: none; stroke: #1f77b4; stroke-width: 1.5; stroke-linecap: square"/>
    </g>
    <g id="text_12">
     <!-- train loss -->
     <g transform="translate(170.634375 25.938483)scale(0.1 -0.1)">
      <defs>
       <path id="DejaVuSans-74" d="M 1172 4494 
L 1172 3500 
L 2356 3500 
L 2356 3053 
L 1172 3053 
L 1172 1153 
Q 1172 725 1289 603 
Q 1406 481 1766 481 
L 2356 481 
L 2356 0 
L 1766 0 
Q 1100 0 847 248 
Q 594 497 594 1153 
L 594 3053 
L 172 3053 
L 172 3500 
L 594 3500 
L 594 4494 
L 1172 4494 
z
" transform="scale(0.015625)"/>
       <path id="DejaVuSans-72" d="M 2631 2963 
Q 2534 3019 2420 3045 
Q 2306 3072 2169 3072 
Q 1681 3072 1420 2755 
Q 1159 2438 1159 1844 
L 1159 0 
L 581 0 
L 581 3500 
L 1159 3500 
L 1159 2956 
Q 1341 3275 1631 3429 
Q 1922 3584 2338 3584 
Q 2397 3584 2469 3576 
Q 2541 3569 2628 3553 
L 2631 2963 
z
" transform="scale(0.015625)"/>
       <path id="DejaVuSans-61" d="M 2194 1759 
Q 1497 1759 1228 1600 
Q 959 1441 959 1056 
Q 959 750 1161 570 
Q 1363 391 1709 391 
Q 2188 391 2477 730 
Q 2766 1069 2766 1631 
L 2766 1759 
L 2194 1759 
z
M 3341 1997 
L 3341 0 
L 2766 0 
L 2766 531 
Q 2569 213 2275 61 
Q 1981 -91 1556 -91 
Q 1019 -91 701 211 
Q 384 513 384 1019 
Q 384 1609 779 1909 
Q 1175 2209 1959 2209 
L 2766 2209 
L 2766 2266 
Q 2766 2663 2505 2880 
Q 2244 3097 1772 3097 
Q 1472 3097 1187 3025 
Q 903 2953 641 2809 
L 641 3341 
Q 956 3463 1253 3523 
Q 1550 3584 1831 3584 
Q 2591 3584 2966 3190 
Q 3341 2797 3341 1997 
z
" transform="scale(0.015625)"/>
       <path id="DejaVuSans-69" d="M 603 3500 
L 1178 3500 
L 1178 0 
L 603 0 
L 603 3500 
z
M 603 4863 
L 1178 4863 
L 1178 4134 
L 603 4134 
L 603 4863 
z
" transform="scale(0.015625)"/>
       <path id="DejaVuSans-6e" d="M 3513 2113 
L 3513 0 
L 2938 0 
L 2938 2094 
Q 2938 2591 2744 2837 
Q 2550 3084 2163 3084 
Q 1697 3084 1428 2787 
Q 1159 2491 1159 1978 
L 1159 0 
L 581 0 
L 581 3500 
L 1159 3500 
L 1159 2956 
Q 1366 3272 1645 3428 
Q 1925 3584 2291 3584 
Q 2894 3584 3203 3211 
Q 3513 2838 3513 2113 
z
" transform="scale(0.015625)"/>
       <path id="DejaVuSans-20" transform="scale(0.015625)"/>
       <path id="DejaVuSans-6c" d="M 603 4863 
L 1178 4863 
L 1178 0 
L 603 0 
L 603 4863 
z
" transform="scale(0.015625)"/>
       <path id="DejaVuSans-73" d="M 2834 3397 
L 2834 2853 
Q 2591 2978 2328 3040 
Q 2066 3103 1784 3103 
Q 1356 3103 1142 2972 
Q 928 2841 928 2578 
Q 928 2378 1081 2264 
Q 1234 2150 1697 2047 
L 1894 2003 
Q 2506 1872 2764 1633 
Q 3022 1394 3022 966 
Q 3022 478 2636 193 
Q 2250 -91 1575 -91 
Q 1294 -91 989 -36 
Q 684 19 347 128 
L 347 722 
Q 666 556 975 473 
Q 1284 391 1588 391 
Q 1994 391 2212 530 
Q 2431 669 2431 922 
Q 2431 1156 2273 1281 
Q 2116 1406 1581 1522 
L 1381 1569 
Q 847 1681 609 1914 
Q 372 2147 372 2553 
Q 372 3047 722 3315 
Q 1072 3584 1716 3584 
Q 2034 3584 2315 3537 
Q 2597 3491 2834 3397 
z
" transform="scale(0.015625)"/>
      </defs>
      <use xlink:href="#DejaVuSans-74"/>
      <use xlink:href="#DejaVuSans-72" x="39.208984"/>
      <use xlink:href="#DejaVuSans-61" x="80.322266"/>
      <use xlink:href="#DejaVuSans-69" x="141.601562"/>
      <use xlink:href="#DejaVuSans-6e" x="169.384766"/>
      <use xlink:href="#DejaVuSans-20" x="232.763672"/>
      <use xlink:href="#DejaVuSans-6c" x="264.550781"/>
      <use xlink:href="#DejaVuSans-6f" x="292.333984"/>
      <use xlink:href="#DejaVuSans-73" x="353.515625"/>
      <use xlink:href="#DejaVuSans-73" x="405.615234"/>
     </g>
    </g>
    <g id="line2d_25">
     <path d="M 142.634375 37.116608 
L 152.634375 37.116608 
L 162.634375 37.116608 
" style="fill: none; stroke-dasharray: 5.55,2.4; stroke-dashoffset: 0; stroke: #bf00bf; stroke-width: 1.5"/>
    </g>
    <g id="text_13">
     <!-- train acc -->
     <g transform="translate(170.634375 40.616608)scale(0.1 -0.1)">
      <use xlink:href="#DejaVuSans-74"/>
      <use xlink:href="#DejaVuSans-72" x="39.208984"/>
      <use xlink:href="#DejaVuSans-61" x="80.322266"/>
      <use xlink:href="#DejaVuSans-69" x="141.601562"/>
      <use xlink:href="#DejaVuSans-6e" x="169.384766"/>
      <use xlink:href="#DejaVuSans-20" x="232.763672"/>
      <use xlink:href="#DejaVuSans-61" x="264.550781"/>
      <use xlink:href="#DejaVuSans-63" x="325.830078"/>
      <use xlink:href="#DejaVuSans-63" x="380.810547"/>
     </g>
    </g>
    <g id="line2d_26">
     <path d="M 142.634375 51.794733 
L 152.634375 51.794733 
L 162.634375 51.794733 
" style="fill: none; stroke-dasharray: 9.6,2.4,1.5,2.4; stroke-dashoffset: 0; stroke: #008000; stroke-width: 1.5"/>
    </g>
    <g id="text_14">
     <!-- valid acc -->
     <g transform="translate(170.634375 55.294733)scale(0.1 -0.1)">
      <defs>
       <path id="DejaVuSans-76" d="M 191 3500 
L 800 3500 
L 1894 563 
L 2988 3500 
L 3597 3500 
L 2284 0 
L 1503 0 
L 191 3500 
z
" transform="scale(0.015625)"/>
       <path id="DejaVuSans-64" d="M 2906 2969 
L 2906 4863 
L 3481 4863 
L 3481 0 
L 2906 0 
L 2906 525 
Q 2725 213 2448 61 
Q 2172 -91 1784 -91 
Q 1150 -91 751 415 
Q 353 922 353 1747 
Q 353 2572 751 3078 
Q 1150 3584 1784 3584 
Q 2172 3584 2448 3432 
Q 2725 3281 2906 2969 
z
M 947 1747 
Q 947 1113 1208 752 
Q 1469 391 1925 391 
Q 2381 391 2643 752 
Q 2906 1113 2906 1747 
Q 2906 2381 2643 2742 
Q 2381 3103 1925 3103 
Q 1469 3103 1208 2742 
Q 947 2381 947 1747 
z
" transform="scale(0.015625)"/>
      </defs>
      <use xlink:href="#DejaVuSans-76"/>
      <use xlink:href="#DejaVuSans-61" x="59.179688"/>
      <use xlink:href="#DejaVuSans-6c" x="120.458984"/>
      <use xlink:href="#DejaVuSans-69" x="148.242188"/>
      <use xlink:href="#DejaVuSans-64" x="176.025391"/>
      <use xlink:href="#DejaVuSans-20" x="239.501953"/>
      <use xlink:href="#DejaVuSans-61" x="271.289062"/>
      <use xlink:href="#DejaVuSans-63" x="332.568359"/>
      <use xlink:href="#DejaVuSans-63" x="387.548828"/>
     </g>
    </g>
   </g>
  </g>
 </g>
 <defs>
  <clipPath id="p4031b2bf98">
   <rect x="30.103125" y="9.340045" width="195.3" height="138.6"/>
  </clipPath>
 </defs>
</svg>
